# xmcd
#
# Track frame offsets:
#	150
#	22071
#	47021
#	73430
#	95925
#	101293
#	124791
#	143060
#	160925
#
# Disc length: 2573 seconds
#
# Revision: 0
# Processed by: cddbd v1.5.1PL0 Copyright (c) Steve Scherf et al.
# Submitted via: dBpowerAMP V4.0
#
DISCID=810a0b09
DTITLE=Fabrizio de André - Anime Salve
DYEAR=1900
DGENRE=
TTITLE0=Princesa
TTITLE1=Khorakhane
TTITLE2=Anime Salve
TTITLE3=Dolcenera
TTITLE4=Le acciughe fanno il pallone
TTITLE5=Disamistade
TTITLE6=A cumba'
TTITLE7=Ho visto Nina volare
TTITLE8=Smisurata Preghiera
EXTD=
EXTT0=
EXTT1=
EXTT2=
EXTT3=
EXTT4=
EXTT5=
EXTT6=
EXTT7=
EXTT8=
PLAYORDER=
